<svg xmlns="http://www.w3.org/2000/svg" viewBox="0 0 24 24" fill="none" stroke="#3E2723" stroke-width="2" stroke-linecap="round" stroke-linejoin="round">
  <path d="M7 3h10v3H7z"/>
  <path d="M8 6v1a2 2 0 0 0-2 2v10a2 2 0 0 0 2 2h8a2 2 0 0 0 2-2V9a2 2 0 0 0-2-2V6"/>
  <path d="M7 14h10v5a2 2 0 0 1-2 2H9a2 2 0 0 1-2-2v-5z" fill="#3E2723" fill-opacity="0.2" stroke="none"/>
  <ellipse cx="10" cy="18" rx="2" ry="3" transform="rotate(30 10 18)" fill="#3E2723" stroke="none"/>
  <ellipse cx="14" cy="16" rx="2" ry="3" transform="rotate(-45 14 16)" fill="#3E2723" stroke="none"/>
  <ellipse cx="12" cy="19" rx="2" ry="3" transform="rotate(70 12 19)" fill="#3E2723" stroke="none"/>
</svg>
