<svg xmlns="http://www.w3.org/2000/svg" viewBox="0 0 24 24" fill="none" stroke="#3E2723" stroke-width="2" stroke-linecap="round" stroke-linejoin="round">
  <path d="M3 3v18h18"/>
  <path d="M8 12c.5.5 1.5 2 1.5 2.5a1.5 1.5 0 0 1-3 0C6.5 14 7.5 12.5 8 12z" fill="#3E2723" stroke="none"/>
  <path d="M14 7c.5.5 1.5 2 1.5 2.5a1.5 1.5 0 0 1-3 0C12.5 9 13.5 7.5 14 7z" fill="#3E2723" stroke="none"/>
  <path d="M20 16c.5.5 1.5 2 1.5 2.5a1.5 1.5 0 0 1-3 0C18.5 18 19.5 16.5 20 16z" fill="#3E2723" stroke="none"/>
</svg>
